<?xml version="1.0" encoding="UTF-8"?>
<!DOCTYPE svg PUBLIC "-//W3C//DTD SVG 1.1//EN" "http://www.w3.org/Graphics/SVG/1.1/DTD/svg11.dtd">
<!-- Creator: CorelDRAW -->
<svg height="2048px" style="shape-rendering:geometricPrecision; text-rendering:geometricPrecision; image-rendering:optimizeQuality; fill-rule:evenodd; clip-rule:evenodd" viewBox="0 0 2048 2048" width="2048px"
     xml:space="preserve"
     xmlns="http://www.w3.org/2000/svg"
>
 <defs>
  <style type="text/css">
   <
   !
   [CDATA[
   .fil2 {
     fill: none
   }

   .fil4 {
     fill: #616161
   }

   .fil3 {
     fill: #757575
   }

   .fil5 {
     fill: #B71C1C
   }

   .fil6 {
     fill: #E53935
   }

   .fil1 {
     fill: #FFB300
   }

   .fil0 {
     fill: #FFD54F
   }

   ]
   ]
   >
  </style>
   <clipPath id="id0">
    <path
      d="M1024 -0.0011811c565.539,0 1024,458.462 1024,1024 0,565.539 -458.462,1024 -1024,1024 -565.539,0 -1024,-458.462 -1024,-1024 0,-565.539 458.462,-1024 1024,-1024z"/>
   </clipPath>
 </defs>
  <g id="Layer_x0020_1">
  <metadata id="CorelCorpID_0Corel-Layer"/>
    <path class="fil0"
          d="M1024 -0.0011811c565.539,0 1024,458.462 1024,1024 0,565.539 -458.462,1024 -1024,1024 -565.539,0 -1024,-458.462 -1024,-1024 0,-565.539 458.462,-1024 1024,-1024z"/>
    <g style="clip-path:url(#id0)">
   <g id="_466479824">
    <g>
     <polygon class="fil1" id="_4620382161" points="1584,685.751 2719.88,1821.63 1875.77,2669.81 739.889,1533.93 "/>
      <polygon class="fil1" id="_462044432" points="739.889,1533.93 1875.77,2669.81 1877.75,2671.79 741.87,1535.91 "/>
      <polygon class="fil1" id="_462037304" points="741.87,1535.91 1877.75,2671.79 1626.85,2706.61 490.973,1570.72 "/>
      <polygon class="fil1" id="_462013448" points="490.973,1570.72 1626.85,2706.61 1626.75,2706.62 490.871,1570.74 "/>
      <polygon class="fil1" id="_462033296" points="490.871,1570.74 1626.75,2706.62 1599.88,2710.35 463.999,1574.47 "/>
    </g>
     <polygon class="fil1" id="_466501664"
              points="1371.78,473.533 1479.93,581.679 1480.53,582.276 1584,685.751 739.889,1533.93 741.87,1535.91 490.973,1570.72 490.871,1570.74 463.999,1574.47 525.7,1319.74 525.637,1319.68 "/>
   </g>
  </g>
    <path class="fil2"
          d="M1024 -0.0011811c565.539,0 1024,458.462 1024,1024 0,565.539 -458.462,1024 -1024,1024 -565.539,0 -1024,-458.462 -1024,-1024 0,-565.539 458.462,-1024 1024,-1024z"/>
    <polygon class="fil3" points="490.871,1570.74 464,1574.47 525.7,1319.74 633.784,1427.83 "/>
    <polygon class="fil4" points="741.87,1535.91 490.973,1570.72 490.871,1570.74 633.784,1427.83 633.908,1427.95 "/>
    <polygon class="fil5"
             points="1479.93,581.679 1480.53,582.277 1584,685.75 739.889,1533.93 633.908,1427.95 633.784,1427.83 "/>
    <polygon class="fil6" points="1371.78,473.533 1479.93,581.679 633.784,1427.83 525.638,1319.68 "/>
 </g>
</svg>
