<?xml version="1.0" encoding="iso-8859-1"?>
<!-- Generator: Adobe Illustrator 19.0.0, SVG Export Plug-In . SVG Version: 6.00 Build 0)  -->
<svg xmlns="http://www.w3.org/2000/svg" xmlns:xlink="http://www.w3.org/1999/xlink" version="1.1" id="Layer_1" x="0px" y="0px" viewBox="0 0 512 512" style="enable-background:new 0 0 512 512;" xml:space="preserve">
<path style="fill:#EFEFEF;" d="M375.884,361.028H135.959V239.345c0-41.171,33.375-74.546,74.546-74.546h90.833  c41.171,0,74.546,33.375,74.546,74.546V361.028z"/>
<path style="fill:#FF9900;" d="M375.88,239.345v121.684H135.962V239.345c0-28.513,16.01-53.289,39.532-65.827  c10.44-5.558,22.364-8.716,35.011-8.716h90.831c12.659,0,24.583,3.158,35.023,8.716C359.881,186.068,375.88,210.831,375.88,239.345z  "/>
<g>
	<path style="fill:#FF8800;" d="M336.36,173.518c-1.76,1.845-3.593,3.629-5.497,5.353c-20.544,18.675-47.164,28.959-74.942,28.959   c-28.139,0-55-10.513-75.653-29.61c-1.652-1.519-3.243-3.098-4.774-4.702c10.44-5.558,22.364-8.716,35.011-8.716h90.831   C313.996,164.801,325.919,167.96,336.36,173.518z"/>
	<rect x="135.965" y="329.284" style="fill:#FF8800;" width="239.917" height="31.744"/>
</g>
<path style="fill:#FFDAA7;" d="M343.258,96.379c0,3.014-0.15,6-0.451,8.944c-4.477,44.029-41.666,78.393-86.886,78.393  c-45.762,0-83.301-35.195-87.027-79.986c-0.21-2.423-0.31-4.878-0.31-7.352c0-4.316,0.321-8.543,0.921-12.669  c6.139-42.237,42.497-74.667,86.415-74.667c13.641,0,26.561,3.134,38.08,8.704c25.97,12.599,44.78,37.709,48.546,67.506  C343.027,88.897,343.258,92.613,343.258,96.379z"/>
<path style="fill:#FFC373;" d="M343.258,96.379c0,3.014-0.15,6-0.451,8.944c-8.193,0.661-16.226,0.981-23.898,0.981  c-48.176,0-77.402-12.67-93.657-23.608c-7.251,5.188-16.106,9.716-26.522,13.552c-13.532,4.988-25.23,7.091-25.721,7.181  c-1.162,0.21-2.334,0.31-3.505,0.31c-0.2,0-0.41,0-0.611-0.01c-0.21-2.423-0.31-4.878-0.31-7.352c0-4.316,0.321-8.543,0.921-12.669  c6.139-42.237,42.497-74.667,86.415-74.667c13.641,0,26.561,3.134,38.08,8.704c25.97,12.599,44.78,37.709,48.546,67.506  C343.027,88.897,343.258,92.613,343.258,96.379z"/>
<path style="fill:#A07852;" d="M342.544,85.255c-90.938,7.594-118.058-29.636-118.058-29.636  c-13.848,20.773-54.979,28.09-54.979,28.09c6.139-42.238,42.492-74.667,86.414-74.667c13.641,0,26.567,3.139,38.083,8.702  C319.97,30.345,338.781,55.457,342.544,85.255z"/>
<rect x="189.727" y="422.513" style="fill:#FF318E;" width="132.603" height="80.439"/>
<rect x="370.161" y="422.513" style="fill:#00A5FF;" width="132.603" height="80.439"/>
<g>
	<rect x="9.233" y="422.513" style="fill:#30D8B8;" width="132.603" height="80.439"/>
	<rect x="228.693" y="232.828" style="fill:#30D8B8;" width="54.66" height="72.337"/>
</g>
<path d="M135.958,275.147c4.994,0,9.042-4.048,9.042-9.042v-26.759c0-32.499,23.796-59.535,54.879-64.628  c7.828,5.616,16.523,10.087,25.85,13.173l16.269,35.899h-13.304c-4.994,0-9.042,4.048-9.042,9.042v72.338  c0,4.994,4.048,9.042,9.042,9.042h54.658c4.994,0,9.042-4.048,9.042-9.042v-18.286c0-4.994-4.048-9.042-9.042-9.042  c-4.994,0-9.042,4.048-9.042,9.042v9.244h-36.573v-54.253h36.573v13.151c0,4.994,4.048,9.042,9.042,9.042  c4.994,0,9.042-4.048,9.042-9.042v-22.194c0-4.994-4.048-9.042-9.042-9.042h-13.303l16.308-35.982  c9.242-3.085,17.861-7.53,25.625-13.104c14.107,2.278,26.985,9.072,37.018,19.711c3.428,3.634,9.152,3.801,12.781,0.375  c3.634-3.426,3.801-9.149,0.375-12.781c-9.452-10.024-21.239-17.448-34.11-21.797c15.074-17.014,24.253-39.364,24.253-63.83  c0-4.209-0.267-8.353-0.786-12.258c-4.087-32.363-24.109-60.22-53.578-74.523C284.745,3.229,270.608,0,255.921,0  c-23.296,0-45.785,8.425-63.319,23.721c-17.364,15.148-28.745,35.99-32.043,58.686c-0.674,4.643-1.017,9.345-1.017,13.973  c0,24.451,9.169,46.791,24.229,63.802c-33.014,11.176-56.853,42.424-56.853,79.163v26.759  C126.916,271.099,130.964,275.147,135.958,275.147z M256.024,210.928l-8.406-18.548c2.74,0.235,5.504,0.381,8.303,0.381  c2.872,0,5.709-0.15,8.518-0.398L256.024,210.928z M224.968,68.806c6.234,5.173,16.558,11.926,32.33,17.354  c4.717,1.625,9.866-0.885,11.493-5.608c1.625-4.722-0.885-9.868-5.608-11.493c-22.824-7.855-31.372-18.745-31.389-18.766  c-1.705-2.34-4.422-3.718-7.309-3.718c-0.063,0-0.125,0.001-0.188,0.002c-2.956,0.062-5.695,1.563-7.335,4.024  c-6.616,9.923-22.569,16.804-35.216,20.723c0.008-0.023,0.015-0.047,0.022-0.071c0.08-0.237,0.172-0.468,0.255-0.704  c10.868-30.905,41.108-52.467,73.9-52.467c11.942,0,23.432,2.624,34.135,7.793c19.463,9.446,34.441,26.829,40.736,47.543  c0.326,1.071,0.637,2.149,0.917,3.239c0.022,0.084,0.042,0.167,0.064,0.251c-12.921,0.633-25.104,0.33-36.331-0.904  c-4.988-0.546-9.431,3.037-9.977,7.999c-0.546,4.964,3.035,9.43,7.999,9.977c8.081,0.889,16.59,1.334,25.458,1.334  c4.977,0,10.08-0.157,15.271-0.437c0.009,0.5,0.024,0.998,0.024,1.502c0,43.173-35.123,78.296-78.296,78.296  s-78.296-35.123-78.296-78.296c0-1.723,0.066-3.459,0.182-5.2C189.011,88.498,210.9,81.891,224.968,68.806z"/>
<circle cx="221.113" cy="123.718" r="11.018"/>
<circle cx="290.087" cy="123.718" r="11.018"/>
<path d="M502.767,413.473h-60.446l-57.395-57.396V239.345c0-8.264-1.206-16.43-3.582-24.275c-1.448-4.779-6.495-7.479-11.276-6.031  c-4.779,1.449-7.479,6.498-6.031,11.276c1.862,6.142,2.806,12.544,2.806,19.029v112.641H145v-52.043  c0-4.994-4.048-9.042-9.042-9.042s-9.042,4.048-9.042,9.042v56.293l-57.236,57.237H53.777c-4.994,0-9.042,4.048-9.042,9.042  c0,4.994,4.048,9.042,9.042,9.042h79.02v62.359H18.275v-62.359h4.156c4.994,0,9.042-4.048,9.042-9.042  c0-4.994-4.048-9.042-9.042-9.042H9.233c-4.994,0-9.042,4.048-9.042,9.042v80.443c0,4.994,4.048,9.042,9.042,9.042h132.606  c4.994,0,9.042-4.048,9.042-9.042v-80.443c0-4.994-4.048-9.042-9.042-9.042H95.256l43.402-43.402h108.221v43.402h-57.157  c-4.994,0-9.042,4.048-9.042,9.042v80.443c0,4.994,4.048,9.042,9.042,9.042h75.041c4.994,0,9.042-4.048,9.042-9.042  c0-4.994-4.048-9.042-9.042-9.042h-65.999v-62.359h114.522v62.359h-14.767c-4.994,0-9.042,4.048-9.042,9.042  c0,4.994,4.048,9.042,9.042,9.042h23.809c4.994,0,9.042-4.048,9.042-9.042v-80.443c0-4.994-4.048-9.042-9.042-9.042h-57.365v-43.402  h108.379l43.402,43.402h-46.583c-4.994,0-9.042,4.048-9.042,9.042v80.443c0,4.994,4.048,9.042,9.042,9.042h132.606  c4.994,0,9.042-4.048,9.042-9.042v-80.443C511.809,417.521,507.761,413.473,502.767,413.473z M493.725,493.916H379.203v-62.359  h114.522L493.725,493.916L493.725,493.916z"/>
<path d="M293.922,466.46v-7.447c0-4.994-4.048-9.042-9.042-9.042s-9.042,4.048-9.042,9.042v7.447c0,4.994,4.048,9.042,9.042,9.042  C289.874,475.502,293.922,471.455,293.922,466.46z"/>
<path d="M246.879,459.013v7.447c0,4.994,4.048,9.042,9.042,9.042c4.994,0,9.042-4.048,9.042-9.042v-7.447  c0-4.994-4.048-9.042-9.042-9.042C250.927,449.971,246.879,454.019,246.879,459.013z"/>
<path d="M217.919,459.013v7.447c0,4.994,4.048,9.042,9.042,9.042c4.994,0,9.042-4.048,9.042-9.042v-7.447  c0-4.994-4.048-9.042-9.042-9.042C221.967,449.971,217.919,454.019,217.919,459.013z"/>
<path d="M465.423,475.502c4.994,0,9.042-4.048,9.042-9.042v-7.447c0-4.994-4.048-9.042-9.042-9.042  c-4.994,0-9.042,4.048-9.042,9.042v7.447C456.381,471.455,460.429,475.502,465.423,475.502z"/>
<path d="M436.463,475.502c4.994,0,9.042-4.048,9.042-9.042v-7.447c0-4.994-4.048-9.042-9.042-9.042s-9.042,4.048-9.042,9.042v7.447  C427.421,471.455,431.469,475.502,436.463,475.502z"/>
<path d="M407.504,475.502c4.994,0,9.042-4.048,9.042-9.042v-7.447c0-4.994-4.048-9.042-9.042-9.042  c-4.994,0-9.042,4.048-9.042,9.042v7.447C398.462,471.455,402.51,475.502,407.504,475.502z"/>
<path d="M113.538,466.46v-7.447c0-4.994-4.048-9.042-9.042-9.042c-4.994,0-9.042,4.048-9.042,9.042v7.447  c0,4.994,4.048,9.042,9.042,9.042C109.49,475.502,113.538,471.455,113.538,466.46z"/>
<path d="M84.579,466.46v-7.447c0-4.994-4.048-9.042-9.042-9.042s-9.042,4.048-9.042,9.042v7.447c0,4.994,4.048,9.042,9.042,9.042  S84.579,471.455,84.579,466.46z"/>
<path d="M46.577,475.502c4.994,0,9.042-4.048,9.042-9.042v-7.447c0-4.994-4.048-9.042-9.042-9.042s-9.042,4.048-9.042,9.042v7.447  C37.535,471.455,41.583,475.502,46.577,475.502z"/>
<g>
</g>
<g>
</g>
<g>
</g>
<g>
</g>
<g>
</g>
<g>
</g>
<g>
</g>
<g>
</g>
<g>
</g>
<g>
</g>
<g>
</g>
<g>
</g>
<g>
</g>
<g>
</g>
<g>
</g>
</svg>
