<svg width="24" height="24" viewBox="0 0 24 24" fill="none" xmlns="http://www.w3.org/2000/svg">
<g id="icon / ionicons / filled / apps">
<path id="Vector" d="M4.875 7.5C4.35583 7.5 3.84831 7.34605 3.41663 7.05761C2.98495 6.76917 2.6485 6.3592 2.44982 5.87955C2.25114 5.39989 2.19915 4.87209 2.30044 4.36289C2.40173 3.85369 2.65173 3.38596 3.01885 3.01885C3.38596 2.65173 3.85369 2.40173 4.36289 2.30044C4.87209 2.19915 5.39989 2.25114 5.87955 2.44982C6.3592 2.6485 6.76917 2.98495 7.05761 3.41663C7.34605 3.84831 7.5 4.35583 7.5 4.875C7.49926 5.57097 7.22246 6.23821 6.73033 6.73033C6.23821 7.22246 5.57097 7.49926 4.875 7.5Z" fill="#0F172A"/>
<path id="Vector_2" d="M12 7.5C11.4808 7.5 10.9733 7.34605 10.5416 7.05761C10.11 6.76917 9.7735 6.3592 9.57482 5.87955C9.37614 5.39989 9.32415 4.87209 9.42544 4.36289C9.52673 3.85369 9.77673 3.38596 10.1438 3.01885C10.511 2.65173 10.9787 2.40173 11.4879 2.30044C11.9971 2.19915 12.5249 2.25114 13.0045 2.44982C13.4842 2.6485 13.8942 2.98495 14.1826 3.41663C14.471 3.84831 14.625 4.35583 14.625 4.875C14.6243 5.57097 14.3475 6.23821 13.8553 6.73033C13.3632 7.22246 12.696 7.49926 12 7.5Z" fill="#0F172A"/>
<path id="Vector_3" d="M19.125 7.5C18.6058 7.5 18.0983 7.34605 17.6666 7.05761C17.235 6.76917 16.8985 6.3592 16.6998 5.87955C16.5011 5.39989 16.4492 4.87209 16.5504 4.36289C16.6517 3.85369 16.9017 3.38596 17.2688 3.01885C17.636 2.65173 18.1037 2.40173 18.6129 2.30044C19.1221 2.19915 19.6499 2.25114 20.1295 2.44982C20.6092 2.6485 21.0192 2.98495 21.3076 3.41663C21.596 3.84831 21.75 4.35583 21.75 4.875C21.7493 5.57097 21.4725 6.23821 20.9803 6.73033C20.4882 7.22246 19.821 7.49926 19.125 7.5Z" fill="#0F172A"/>
<path id="Vector_4" d="M4.875 14.625C4.35583 14.625 3.84831 14.471 3.41663 14.1826C2.98495 13.8942 2.6485 13.4842 2.44982 13.0045C2.25114 12.5249 2.19915 11.9971 2.30044 11.4879C2.40173 10.9787 2.65173 10.511 3.01885 10.1438C3.38596 9.77673 3.85369 9.52673 4.36289 9.42544C4.87209 9.32415 5.39989 9.37614 5.87955 9.57482C6.3592 9.7735 6.76917 10.11 7.05761 10.5416C7.34605 10.9733 7.5 11.4808 7.5 12C7.49926 12.696 7.22246 13.3632 6.73033 13.8553C6.23821 14.3475 5.57097 14.6243 4.875 14.625Z" fill="#0F172A"/>
<path id="Vector_5" d="M12 14.625C11.4808 14.625 10.9733 14.471 10.5416 14.1826C10.11 13.8942 9.7735 13.4842 9.57482 13.0045C9.37614 12.5249 9.32415 11.9971 9.42544 11.4879C9.52673 10.9787 9.77673 10.511 10.1438 10.1438C10.511 9.77673 10.9787 9.52673 11.4879 9.42544C11.9971 9.32415 12.5249 9.37614 13.0045 9.57482C13.4842 9.7735 13.8942 10.11 14.1826 10.5416C14.471 10.9733 14.625 11.4808 14.625 12C14.6243 12.696 14.3475 13.3632 13.8553 13.8553C13.3632 14.3475 12.696 14.6243 12 14.625Z" fill="#0F172A"/>
<path id="Vector_6" d="M19.125 14.625C18.6058 14.625 18.0983 14.471 17.6666 14.1826C17.235 13.8942 16.8985 13.4842 16.6998 13.0045C16.5011 12.5249 16.4492 11.9971 16.5504 11.4879C16.6517 10.9787 16.9017 10.511 17.2688 10.1438C17.636 9.77673 18.1037 9.52673 18.6129 9.42544C19.1221 9.32415 19.6499 9.37614 20.1295 9.57482C20.6092 9.7735 21.0192 10.11 21.3076 10.5416C21.596 10.9733 21.75 11.4808 21.75 12C21.7493 12.696 21.4725 13.3632 20.9803 13.8553C20.4882 14.3475 19.821 14.6243 19.125 14.625Z" fill="#0F172A"/>
<path id="Vector_7" d="M4.875 21.75C4.35583 21.75 3.84831 21.596 3.41663 21.3076C2.98495 21.0192 2.6485 20.6092 2.44982 20.1295C2.25114 19.6499 2.19915 19.1221 2.30044 18.6129C2.40173 18.1037 2.65173 17.636 3.01885 17.2688C3.38596 16.9017 3.85369 16.6517 4.36289 16.5504C4.87209 16.4492 5.39989 16.5011 5.87955 16.6998C6.3592 16.8985 6.76917 17.235 7.05761 17.6666C7.34605 18.0983 7.5 18.6058 7.5 19.125C7.49926 19.821 7.22246 20.4882 6.73033 20.9803C6.23821 21.4725 5.57097 21.7493 4.875 21.75Z" fill="#0F172A"/>
<path id="Vector_8" d="M12 21.75C11.4808 21.75 10.9733 21.596 10.5416 21.3076C10.11 21.0192 9.7735 20.6092 9.57482 20.1295C9.37614 19.6499 9.32415 19.1221 9.42544 18.6129C9.52673 18.1037 9.77673 17.636 10.1438 17.2688C10.511 16.9017 10.9787 16.6517 11.4879 16.5504C11.9971 16.4492 12.5249 16.5011 13.0045 16.6998C13.4842 16.8985 13.8942 17.235 14.1826 17.6666C14.471 18.0983 14.625 18.6058 14.625 19.125C14.6243 19.821 14.3475 20.4882 13.8553 20.9803C13.3632 21.4725 12.696 21.7493 12 21.75Z" fill="#0F172A"/>
<path id="Vector_9" d="M19.125 21.75C18.6058 21.75 18.0983 21.596 17.6666 21.3076C17.235 21.0192 16.8985 20.6092 16.6998 20.1295C16.5011 19.6499 16.4492 19.1221 16.5504 18.6129C16.6517 18.1037 16.9017 17.636 17.2688 17.2688C17.636 16.9017 18.1037 16.6517 18.6129 16.5504C19.1221 16.4492 19.6499 16.5011 20.1295 16.6998C20.6092 16.8985 21.0192 17.235 21.3076 17.6666C21.596 18.0983 21.75 18.6058 21.75 19.125C21.7493 19.821 21.4725 20.4882 20.9803 20.9803C20.4882 21.4725 19.821 21.7493 19.125 21.75Z" fill="#0F172A"/>
</g>
</svg>
