<?xml version="1.0" encoding="UTF-8"?>
<!DOCTYPE svg PUBLIC "-//W3C//DTD SVG 1.1//EN" "http://www.w3.org/Graphics/SVG/1.1/DTD/svg11.dtd">
<!-- Creator: CorelDRAW -->
<svg height="2048px" style="shape-rendering:geometricPrecision; text-rendering:geometricPrecision; image-rendering:optimizeQuality; fill-rule:evenodd; clip-rule:evenodd" viewBox="0 0 2048 2048" width="2048px"
     xml:space="preserve"
     xmlns="http://www.w3.org/2000/svg"
>
 <defs>
  <style type="text/css">
   <
   !
   [CDATA[
   .fil2 {
     fill: none
   }

   .fil1 {
     fill: #039BE5
   }

   .fil0 {
     fill: #4FC3F7
   }

   .fil3 {
     fill: #F44336
   }

   .fil4 {
     fill: #FBC02D
   }

   ]
   ]
   >
  </style>
   <clipPath id="id0">
    <path
      d="M1024 -0.0011811c565.539,0 1024,458.462 1024,1024 0,565.539 -458.462,1024 -1024,1024 -565.539,0 -1024,-458.462 -1024,-1024 0,-565.539 458.462,-1024 1024,-1024z"/>
   </clipPath>
 </defs>
  <g id="Layer_x0020_1">
  <metadata id="CorelCorpID_0Corel-Layer"/>
    <path class="fil0"
          d="M1024 -0.0011811c565.539,0 1024,458.462 1024,1024 0,565.539 -458.462,1024 -1024,1024 -565.539,0 -1024,-458.462 -1024,-1024 0,-565.539 458.462,-1024 1024,-1024z"/>
    <g style="clip-path:url(#id0)">
   <g id="_466487960">
    <g>
     <polygon class="fil1" id="_4620344241"
              points="1570.54,544.404 2706.42,1680.29 2708.17,1682.51 2709.81,1684.82 2711.35,1687.22 2712.77,1689.68 2714.07,1692.23 2715.25,1694.84 2716.3,1697.51 2717.23,1700.25 2718.03,1703.05 2718.68,1705.9 2719.2,1708.8 2719.58,1711.75 2719.81,1714.74 2719.88,1717.78 2719.81,1720.81 2719.58,1723.8 2719.2,1726.75 2718.68,1729.65 2718.03,1732.51 2717.23,1735.3 2716.3,1738.04 2715.25,1740.72 2714.07,1743.33 2712.77,1745.87 2711.35,1748.34 2709.81,1750.73 2708.17,1753.04 2706.42,1755.27 2704.56,1757.41 2702.61,1759.46 2700.57,1761.41 2698.43,1763.26 2696.2,1765.01 2693.89,1766.66 2691.5,1768.19 2689.03,1769.61 2686.49,1770.91 2683.87,1772.09 2681.2,1773.15 2678.46,1774.07 2675.66,1774.87 2672.81,1775.53 2669.91,1776.05 2666.96,1776.42 2663.97,1776.65 2660.93,1776.73 1658.83,1776.73 1655.8,1776.65 1652.8,1776.42 1649.85,1776.05 1646.95,1775.53 1644.1,1774.87 1641.3,1774.07 1638.56,1773.15 1635.89,1772.09 1633.28,1770.91 1630.74,1769.61 1628.27,1768.19 1625.87,1766.66 1623.56,1765.01 1621.34,1763.26 1619.2,1761.41 1617.15,1759.46 481.269,623.574 483.316,625.525 485.456,627.378 487.682,629.129 489.994,630.773 492.385,632.306 494.854,633.726 497.396,635.028 500.007,636.21 502.683,637.265 505.422,638.191 508.219,638.986 511.07,639.645 513.972,640.164 516.923,640.538 519.915,640.766 522.948,640.843 1525.05,640.843 1528.09,640.766 1531.08,640.538 1534.03,640.164 1536.93,639.645 1539.78,638.986 1542.58,638.191 1545.32,637.265 1547.99,636.21 1550.6,635.028 1553.15,633.726 1555.61,632.306 1558.01,630.773 1560.32,629.129 1562.54,627.378 1564.68,625.525 1566.73,623.574 1568.68,621.526 1570.54,619.387 1572.29,617.16 1573.93,614.849 1575.46,612.458 1576.88,609.989 1578.19,607.447 1579.37,604.836 1580.42,602.16 1581.35,599.421 1582.14,596.624 1582.8,593.773 1583.32,590.871 1583.7,587.92 1583.92,584.928 1584,581.895 1583.92,578.862 1583.7,575.869 1583.32,572.92 1582.8,570.018 1582.14,567.167 1581.35,564.37 1580.42,561.631 1579.37,558.955 1578.19,556.343 1576.88,553.802 1575.46,551.333 1573.93,548.941 1572.29,546.63 "/>
      <polygon class="fil1" id="_462045104"
               points="1568.68,984.369 2704.56,2120.25 2706.42,2122.39 2708.17,2124.62 2709.81,2126.93 2711.35,2129.32 2712.77,2131.79 2714.07,2134.33 2715.25,2136.94 2716.3,2139.62 2717.23,2142.36 2718.03,2145.15 2718.68,2148.01 2719.2,2150.91 2719.58,2153.86 2719.81,2156.85 2719.88,2159.88 2719.81,2162.92 2719.58,2165.91 2719.2,2168.86 2718.68,2171.76 2718.03,2174.61 2717.23,2177.41 2716.3,2180.15 2715.25,2182.82 2714.07,2185.43 2712.77,2187.98 2711.35,2190.44 2709.81,2192.84 2708.17,2195.15 2706.42,2197.37 2704.56,2199.51 2702.61,2201.56 2700.57,2203.51 2698.43,2205.37 2696.2,2207.12 2693.89,2208.76 2691.5,2210.29 2689.03,2211.71 2686.49,2213.02 2683.87,2214.2 2681.2,2215.25 2678.46,2216.18 2675.66,2216.97 2672.81,2217.63 2669.91,2218.15 2666.96,2218.53 2663.97,2218.75 2660.93,2218.83 1658.83,2218.83 1655.8,2218.75 1652.8,2218.53 1649.85,2218.15 1646.95,2217.63 1644.1,2216.97 1641.3,2216.18 1638.56,2215.25 1635.89,2214.2 1633.28,2213.02 1630.74,2211.71 1628.27,2210.29 1625.87,2208.76 1623.56,2207.12 1621.34,2205.37 1619.2,2203.51 483.316,1067.63 485.456,1069.48 487.682,1071.23 489.994,1072.88 492.385,1074.41 494.854,1075.83 497.396,1077.13 500.007,1078.31 502.683,1079.37 505.422,1080.3 508.219,1081.09 511.07,1081.75 513.972,1082.27 516.923,1082.64 519.915,1082.87 522.948,1082.95 1525.05,1082.95 1528.09,1082.87 1531.08,1082.64 1534.03,1082.27 1536.93,1081.75 1539.78,1081.09 1542.58,1080.3 1545.32,1079.37 1547.99,1078.31 1550.6,1077.13 1553.15,1075.83 1555.61,1074.41 1558.01,1072.88 1560.32,1071.23 1562.54,1069.48 1564.68,1067.63 1566.73,1065.68 1568.68,1063.63 1570.54,1061.49 1572.29,1059.26 1573.93,1056.95 1575.46,1054.56 1576.88,1052.09 1578.19,1049.55 1579.37,1046.94 1580.42,1044.26 1581.35,1041.53 1582.14,1038.73 1582.8,1035.88 1583.32,1032.98 1583.7,1030.02 1583.92,1027.03 1584,1024 1583.92,1020.97 1583.7,1017.98 1583.32,1015.02 1582.8,1012.12 1582.14,1009.27 1581.35,1006.47 1580.42,1003.74 1579.37,1001.06 1578.19,998.448 1576.88,995.906 1575.46,993.438 1573.93,991.046 1572.29,988.736 1570.54,986.508 "/>
      <polygon class="fil1" id="_462041864"
               points="1566.73,1424.43 2702.61,2560.31 2704.56,2562.36 2706.42,2564.5 2708.17,2566.72 2709.81,2569.03 2711.35,2571.42 2712.77,2573.89 2714.07,2576.44 2715.25,2579.05 2716.3,2581.72 2717.23,2584.46 2718.03,2587.26 2718.68,2590.11 2719.2,2593.01 2719.58,2595.96 2719.81,2598.95 2719.88,2601.99 2719.81,2605.02 2719.58,2608.01 2719.2,2610.96 2718.68,2613.86 2718.03,2616.72 2717.23,2619.51 2716.3,2622.25 2715.25,2624.93 2714.07,2627.54 2712.77,2630.08 2711.35,2632.55 2709.81,2634.94 2708.17,2637.25 2706.42,2639.48 2704.56,2641.62 2702.61,2643.67 2700.57,2645.62 2698.43,2647.47 2696.2,2649.22 2693.89,2650.86 2691.5,2652.4 2689.03,2653.82 2686.49,2655.12 2683.87,2656.3 2681.2,2657.36 2678.46,2658.28 2675.66,2659.08 2672.81,2659.74 2669.91,2660.26 2666.96,2660.63 2663.97,2660.86 2660.93,2660.93 1658.83,2660.93 1655.8,2660.86 1652.8,2660.63 1649.85,2660.26 1646.95,2659.74 1644.1,2659.08 1641.3,2658.28 1638.56,2657.36 1635.89,2656.3 1633.28,2655.12 1630.74,2653.82 1628.27,2652.4 1625.87,2650.86 1623.56,2649.22 1621.34,2647.47 485.456,1511.59 487.682,1513.34 489.994,1514.98 492.385,1516.52 494.854,1517.94 497.396,1519.24 500.007,1520.42 502.683,1521.47 505.422,1522.4 508.219,1523.2 511.07,1523.85 513.972,1524.37 516.923,1524.75 519.915,1524.98 522.948,1525.05 1525.05,1525.05 1528.09,1524.98 1531.08,1524.75 1534.03,1524.37 1536.93,1523.85 1539.78,1523.2 1542.58,1522.4 1545.32,1521.47 1547.99,1520.42 1550.6,1519.24 1553.15,1517.94 1555.61,1516.52 1558.01,1514.98 1560.32,1513.34 1562.54,1511.59 1564.68,1509.74 1566.73,1507.78 1568.68,1505.74 1570.54,1503.6 1572.29,1501.37 1573.93,1499.06 1575.46,1496.67 1576.88,1494.2 1578.19,1491.66 1579.37,1489.05 1580.42,1486.37 1581.35,1483.63 1582.14,1480.83 1582.8,1477.98 1583.32,1475.08 1583.7,1472.13 1583.92,1469.14 1584,1466.1 1583.92,1463.07 1583.7,1460.08 1583.32,1457.13 1582.8,1454.23 1582.14,1451.38 1581.35,1448.58 1580.42,1445.84 1579.37,1443.16 1578.19,1440.55 1576.88,1438.01 1575.46,1435.54 1573.93,1433.15 1572.29,1430.84 1570.54,1428.61 1568.68,1426.47 "/>
    </g>
     <path class="fil1" d="M522.948 522.948l1002.1 0c32.5453,0 58.9489,26.4012 58.9489,58.9477 0,32.5453 -26.4036,58.9477 -58.9489,58.9477l-1002.1 0c-32.5453,0 -58.9489,-26.4024 -58.9489,-58.9477 0,-32.5465 26.4036,-58.9477 58.9489,-58.9477zm0 442.105l1002.1 0c32.5453,0 58.9489,26.4024 58.9489,58.9477 0,32.5453 -26.4036,58.9477 -58.9489,58.9477l-1002.1 0c-32.5453,0 -58.9489,-26.4024 -58.9489,-58.9477 0,-32.5453 26.4036,-58.9477 58.9489,-58.9477zm0 442.105l1002.1 0c32.5453,0 58.9489,26.4024 58.9489,58.9477 0,32.5465 -26.4036,58.9477 -58.9489,58.9477l-1002.1 0c-32.5453,0 -58.9489,-26.4012 -58.9489,-58.9477 0,-32.5453 26.4036,-58.9477 58.9489,-58.9477z"
           id="_466496984"/>
   </g>
  </g>
    <path class="fil2"
          d="M1024 -0.0011811c565.539,0 1024,458.462 1024,1024 0,565.539 -458.462,1024 -1024,1024 -565.539,0 -1024,-458.462 -1024,-1024 0,-565.539 458.462,-1024 1024,-1024z"/>
    <path class="fil3"
          d="M522.948 965.052l1002.1 0c32.5453,0 58.9489,26.4024 58.9489,58.9477 0,32.5453 -26.4036,58.9477 -58.9489,58.9477l-1002.1 0c-32.5453,0 -58.9489,-26.4024 -58.9489,-58.9477 0,-32.5453 26.4036,-58.9477 58.9489,-58.9477z"/>
    <path class="fil4"
          d="M522.948 1407.16l1002.1 0c32.5453,0 58.9489,26.4024 58.9489,58.9477 0,32.5465 -26.4036,58.9477 -58.9489,58.9477l-1002.1 0c-32.5453,0 -58.9489,-26.4012 -58.9489,-58.9477 0,-32.5453 26.4036,-58.9477 58.9489,-58.9477z"/>
    <path class="fil4"
          d="M522.948 522.948l1002.1 0c32.5453,0 58.9489,26.4012 58.9489,58.9477 0,32.5453 -26.4036,58.9477 -58.9489,58.9477l-1002.1 0c-32.5453,0 -58.9489,-26.4024 -58.9489,-58.9477 0,-32.5465 26.4036,-58.9477 58.9489,-58.9477z"/>
 </g>
</svg>
