<?xml version="1.0" encoding="utf-8"?>
<!-- Generator: Adobe Illustrator 18.0.0, SVG Export Plug-In . SVG Version: 6.00 Build 0)  -->
<!DOCTYPE svg PUBLIC "-//W3C//DTD SVG 1.1//EN" "http://www.w3.org/Graphics/SVG/1.1/DTD/svg11.dtd">
<svg version="1.1" id="Icon_Set" xmlns="http://www.w3.org/2000/svg" xmlns:xlink="http://www.w3.org/1999/xlink" x="0px" y="0px"
	 viewBox="0 0 256 256" style="enable-background:new 0 0 256 256;" xml:space="preserve">
<style type="text/css">
	.st0{fill:#4C4372;}
	.st1{fill:#F1C48B;}
	.st2{fill:#FFFFFF;}
	.st3{fill:#A3D0F1;}
	.st4{fill:#7BACF1;}
	.st5{fill:#D4E7F8;}
	.st6{fill:#FD919E;}
	.st7{fill:#D3E6F7;}
	.st8{fill:#E8677D;}
	.st9{fill:#D3E6F8;}
</style>
<g>
	<g>
		<circle class="st1" cx="128" cy="128" r="104.245"/>
	</g>
	<g>
		<path class="st2" d="M197.41,181H58.59c-3.54,0-6.41-2.87-6.41-6.41V81.41c0-3.54,2.87-6.41,6.41-6.41h138.82
			c3.54,0,6.41,2.87,6.41,6.41v93.18C203.82,178.13,200.95,181,197.41,181z"/>
	</g>
	<g>
		<path class="st6" d="M117.662,160.782H70.735c-3.559,0-6.444-2.885-6.444-6.443v-52.677c0-3.559,2.885-6.443,6.444-6.443h46.927
			c3.559,0,6.443,2.885,6.443,6.443v52.677C124.105,157.897,121.22,160.782,117.662,160.782z"/>
	</g>
	<g>
		<path class="st8" d="M117.662,95.218h-9.583c3.559,0,6.443,2.885,6.443,6.443v52.677c0,3.559-2.885,6.443-6.443,6.443h9.583
			c3.559,0,6.444-2.885,6.444-6.443v-52.677C124.105,98.103,121.22,95.218,117.662,95.218z"/>
	</g>
	<g>
		<path class="st5" d="M197.41,75h-13.319c3.54,0,6.41,2.87,6.41,6.41v93.18c0,3.54-2.87,6.41-6.41,6.41h13.319
			c3.54,0,6.41-2.87,6.41-6.41V81.41C203.82,77.87,200.95,75,197.41,75z"/>
	</g>
	<g>
		<path class="st3" d="M106.889,140.142h-8.441c-0.172,2.119-1.927,3.791-4.09,3.791c-2.164,0-3.918-1.672-4.09-3.791h-8.441
			c-4.304,0-7.793,3.489-7.793,7.793v12.847h40.648v-12.847C114.681,143.631,111.192,140.142,106.889,140.142z"/>
	</g>
	<g>
		<path class="st0" d="M197.41,184H58.59c-5.188,0-9.41-4.221-9.41-9.41V81.41c0-5.189,4.222-9.41,9.41-9.41h138.82
			c5.188,0,9.41,4.221,9.41,9.41v93.18C206.82,179.779,202.599,184,197.41,184z M58.59,78c-1.88,0-3.41,1.53-3.41,3.41v93.18
			c0,1.88,1.53,3.41,3.41,3.41h138.82c1.88,0,3.41-1.53,3.41-3.41V81.41c0-1.88-1.53-3.41-3.41-3.41H58.59z"/>
	</g>
	<g>
		<path class="st0" d="M117.662,163.782H70.735c-5.207,0-9.443-4.236-9.443-9.443v-52.677c0-5.207,4.236-9.443,9.443-9.443h46.927
			c5.207,0,9.443,4.236,9.443,9.443v52.677C127.105,159.545,122.869,163.782,117.662,163.782z M70.735,98.218
			c-1.898,0-3.443,1.544-3.443,3.443v52.677c0,1.899,1.545,3.443,3.443,3.443h46.927c1.898,0,3.443-1.544,3.443-3.443v-52.677
			c0-1.899-1.545-3.443-3.443-3.443H70.735z"/>
	</g>
	<g>
		<path class="st5" d="M94.357,134.666L94.357,134.666c-1.476,0-2.87-0.338-4.124-0.925v6.068c0,2.277,1.846,4.124,4.124,4.124
			c2.277,0,4.124-1.846,4.124-4.124v-6.068C97.227,134.328,95.833,134.666,94.357,134.666z"/>
	</g>
	<g>
		<path class="st0" d="M191.708,98.218h-55.5c-1.657,0-3-1.343-3-3s1.343-3,3-3h55.5c1.657,0,3,1.343,3,3
			S193.365,98.218,191.708,98.218z"/>
	</g>
	<g>
		<path class="st0" d="M191.708,120.073h-55.5c-1.657,0-3-1.343-3-3s1.343-3,3-3h55.5c1.657,0,3,1.343,3,3
			S193.365,120.073,191.708,120.073z"/>
	</g>
	<g>
		<path class="st0" d="M191.708,141.927h-55.5c-1.657,0-3-1.343-3-3s1.343-3,3-3h55.5c1.657,0,3,1.343,3,3
			S193.365,141.927,191.708,141.927z"/>
	</g>
	<g>
		<path class="st0" d="M191.708,163.782h-27.75c-1.657,0-3-1.343-3-3s1.343-3,3-3h27.75c1.657,0,3,1.343,3,3
			S193.365,163.782,191.708,163.782z"/>
	</g>
	<g>
		<path class="st2" d="M94.357,134.666L94.357,134.666c-5.38,0-9.742-4.361-9.742-9.742v-6.633c0-5.38,4.361-9.742,9.742-9.742h0
			c5.38,0,9.742,4.361,9.742,9.742v6.633C104.099,130.305,99.737,134.666,94.357,134.666z"/>
	</g>
	<g>
		<path class="st0" d="M114.682,163.782H74.033c-1.657,0-3-1.343-3-3v-12.847c0-5.951,4.842-10.792,10.793-10.792h8.44
			c1.563,0,2.863,1.199,2.99,2.756c0.048,0.59,0.521,1.035,1.101,1.035s1.052-0.444,1.1-1.034c0.126-1.558,1.428-2.757,2.99-2.757
			h8.441c5.951,0,10.793,4.841,10.793,10.792v12.847C117.682,162.438,116.339,163.782,114.682,163.782z M77.033,157.782h34.648
			v-9.847c0-2.643-2.15-4.792-4.793-4.792h-6.262c-1.206,2.257-3.588,3.791-6.27,3.791c-2.681,0-5.063-1.534-6.27-3.791h-6.262
			c-2.643,0-4.793,2.15-4.793,4.792V157.782z"/>
	</g>
	<g>
		<path class="st0" d="M94.357,146.933c-3.928,0-7.124-3.196-7.124-7.124v-6.068c0-1.026,0.524-1.981,1.391-2.532
			c0.865-0.551,1.953-0.62,2.882-0.185c1.818,0.853,3.885,0.853,5.703,0c0.928-0.435,2.017-0.365,2.882,0.185
			c0.866,0.551,1.391,1.506,1.391,2.532v6.068C101.481,143.737,98.285,146.933,94.357,146.933z M93.233,137.617v2.192
			c0,0.62,0.504,1.124,1.124,1.124s1.124-0.504,1.124-1.124v-2.192C94.737,137.682,93.978,137.682,93.233,137.617z"/>
	</g>
	<g>
		<path class="st0" d="M94.357,137.666c-7.026,0-12.742-5.716-12.742-12.742v-6.632c0-7.026,5.716-12.742,12.742-12.742
			c7.025,0,12.741,5.716,12.741,12.742v6.632C107.099,131.95,101.383,137.666,94.357,137.666z M94.357,111.55
			c-3.718,0-6.742,3.024-6.742,6.742v6.632c0,3.717,3.024,6.742,6.742,6.742c3.717,0,6.741-3.024,6.741-6.742v-6.632
			C101.099,114.575,98.074,111.55,94.357,111.55z"/>
	</g>
</g>
</svg>
