<?xml version="1.0" encoding="UTF-8"?>
<!DOCTYPE svg PUBLIC "-//W3C//DTD SVG 1.1//EN" "http://www.w3.org/Graphics/SVG/1.1/DTD/svg11.dtd">
<!-- Creator: CorelDRAW -->
<svg xmlns="http://www.w3.org/2000/svg" xml:space="preserve" width="2048px" height="2048px" style="shape-rendering:geometricPrecision; text-rendering:geometricPrecision; image-rendering:optimizeQuality; fill-rule:evenodd; clip-rule:evenodd"
viewBox="0 0 2048 2048"
 xmlns:xlink="http://www.w3.org/1999/xlink">
 <defs>
  <style type="text/css">
   <![CDATA[
    .fil2 {fill:none}
    .fil5 {fill:#37474F}
    .fil6 {fill:#B0BEC5}
    .fil7 {fill:#FF6F00}
    .fil1 {fill:#FFA726}
    .fil0 {fill:#FFB74D}
    .fil3 {fill:#37474F;fill-rule:nonzero}
    .fil4 {fill:#455A64;fill-rule:nonzero}
    .fil8 {fill:#78909C;fill-rule:nonzero}
   ]]>
  </style>
   <clipPath id="id0">
    <path d="M1024 -0.0011811c565.539,0 1024,458.462 1024,1024 0,565.539 -458.462,1024 -1024,1024 -565.539,0 -1024,-458.462 -1024,-1024 0,-565.539 458.462,-1024 1024,-1024z"/>
   </clipPath>
 </defs>
 <g id="Layer_x0020_1">
  <metadata id="CorelCorpID_0Corel-Layer"/>
  <path class="fil0" d="M1024 -0.0011811c565.539,0 1024,458.462 1024,1024 0,565.539 -458.462,1024 -1024,1024 -565.539,0 -1024,-458.462 -1024,-1024 0,-565.539 458.462,-1024 1024,-1024z"/>
  <g style="clip-path:url(#id0)">
   <g id="_289347728">
    <g>
     <path id="_2909686561" class="fil1" d="M2713.18 1863.09l0 0zm-1135.88 -1135.88l0 0z"/>
     <polygon id="_290968680" class="fil1" points="1578.88,728.942 2714.76,1864.82 2715.46,1865.74 2716.12,1866.67 2716.72,1867.64 2717.27,1868.62 2717.76,1869.63 2718.21,1870.65 2718.6,1871.69 2718.94,1872.74 2719.23,1873.81 2719.46,1874.89 2719.65,1875.97 2719.78,1877.06 2719.86,1878.15 2719.88,1879.25 1584,743.369 1583.98,742.273 1583.9,741.178 1583.76,740.088 1583.58,739.003 1583.35,737.926 1583.06,736.861 1582.72,735.806 1582.33,734.767 1581.88,733.744 1581.39,732.739 1580.84,731.754 1580.23,730.791 1579.58,729.853 "/>
     <polygon id="_290970312" class="fil1" points="1584,743.369 2719.88,1879.25 2719.88,1910.51 1584,774.631 "/>
     <polygon id="_290970192" class="fil1" points="1584,774.631 2719.88,1910.51 2719.88,2647.11 1584,1511.23 "/>
     <polygon id="_290969856" class="fil1" points="1584,1511.23 2719.88,2647.11 2719.88,2678.37 1584,1542.49 "/>
     <polygon id="_290970000" class="fil1" points="1584,1542.49 2719.88,2678.37 2719.76,2680.71 2719.42,2682.98 2718.85,2685.17 2718.09,2687.27 2717.12,2689.27 2715.98,2691.15 2714.66,2692.91 2713.19,2694.53 2711.56,2696.01 2709.8,2697.32 2707.92,2698.47 2705.92,2699.43 2703.82,2700.2 2701.63,2700.76 2699.36,2701.11 2697.02,2701.23 1561.14,1565.35 1563.48,1565.23 1565.75,1564.88 1567.94,1564.32 1570.04,1563.55 1572.04,1562.59 1573.92,1561.44 1575.68,1560.13 1577.31,1558.65 1578.78,1557.03 1580.1,1555.27 1581.24,1553.38 1582.2,1551.39 1582.97,1549.29 1583.54,1547.09 1583.88,1544.83 "/>
     <polygon id="_290969760" class="fil1" points="1561.14,1565.35 2697.02,2701.23 1622.74,2701.23 486.857,1565.35 "/>
     <polygon id="_290970264" class="fil1" points="486.857,1565.35 1622.74,2701.23 1620.4,2701.11 1618.13,2700.76 1615.94,2700.2 1613.84,2699.43 1611.84,2698.47 1609.96,2697.32 1608.2,2696.01 472.317,1560.13 474.077,1561.44 475.961,1562.59 477.959,1563.55 480.059,1564.32 482.25,1564.88 484.519,1565.23 "/>
    </g>
    <path id="_289347752" class="fil1" d="M1577.3 727.208l0 0zm-237.715 -237.716l237.717 237.714c4.46339,4.46339 6.69449,10.3134 6.69567,16.1634l-0.0011811 31.2626 0.0011811 736.594 0 31.2626c0,12.6236 -10.2343,22.8579 -22.8579,22.8579l-1074.29 0c-12.6236,0 -22.8579,-10.2343 -22.8579,-22.8579l0 -31.2626 0 -974.45 0 -31.2626c0,-12.6236 10.2343,-22.8579 22.8579,-22.8579l182.195 0 30.5256 0 94.793 0 395.573 0 40.1044 0 11.0976 0 82.1422 0c6.38386,0 12.1536,2.61732 16.3016,6.83741z"/>
   </g>
  </g>
  <path class="fil2" d="M1024 -0.0011811c565.539,0 1024,458.462 1024,1024 0,565.539 -458.462,1024 -1024,1024 -565.539,0 -1024,-458.462 -1024,-1024 0,-565.539 458.462,-1024 1024,-1024z"/>
  <path class="fil3" d="M486.857 513.917l182.195 0 572.093 0 82.1422 0c6.38386,0 12.1536,2.61732 16.3016,6.83741l237.715 237.716 0.00236221 -0.00236221c4.46339,4.46339 6.69449,10.3122 6.69449,16.1634l0.0011811 0 0 767.856c0,12.6236 -10.2343,22.8579 -22.8579,22.8579l-1074.29 0c-12.6236,0 -22.8579,-10.2343 -22.8579,-22.8579l0 -1005.71c0,-12.6248 10.2343,-22.8579 22.8579,-22.8579z"/>
  <path class="fil4" d="M486.857 482.654l182.195 0 572.093 0 82.1422 0c6.38386,0 12.1536,2.61732 16.3016,6.83741l237.715 237.716 0.00236221 -0.00236221c4.46339,4.46339 6.69449,10.3134 6.69449,16.1634l0.0011811 0 0 767.856c0,12.6248 -10.2343,22.8579 -22.8579,22.8579l-1074.29 0c-12.6236,0 -22.8579,-10.2331 -22.8579,-22.8579l0 -1005.71c0,-12.6236 10.2343,-22.8579 22.8579,-22.8579z"/>
  <path class="fil5" d="M699.577 482.654l530.47 0 0 253.387c0,12.0307 -9.84331,21.874 -21.874,21.874l-486.722 0c-12.0307,0 -21.874,-9.84331 -21.874,-21.874l0 -253.387z"/>
  <path class="fil6" d="M794.37 482.654l395.573 0 0 188.951c0,8.97284 -7.33938,16.3122 -16.3122,16.3122l-362.948 0c-8.97284,0 -16.3122,-7.33938 -16.3122,-16.3122l0 -188.951z"/>
  <polygon class="fil3" points="1158.5,538.023 1133.75,538.023 1133.75,632.549 1158.5,632.549 "/>
  <rect class="fil6" x="699.577" y="1014.55" width="632.553" height="519.532"/>
  <rect class="fil7" x="699.577" y="1014.55" width="632.553" height="43.7018"/>
  <polygon class="fil8" points="787.281,1302.46 787.281,1256.01 1244.43,1256.01 1244.43,1302.46 "/>
  <polygon class="fil8" points="787.281,1196.73 787.281,1150.28 1244.43,1150.28 1244.43,1196.73 "/>
  <polygon class="fil8" points="787.281,1393.15 787.281,1346.7 1244.43,1346.7 1244.43,1393.15 "/>
  <circle class="fil5" cx="533.635" cy="1474.98" r="25.7484"/>
  <circle class="fil5" cx="1514.37" cy="1474.98" r="25.7484"/>
 </g>
</svg>
